<svg xmlns="http://www.w3.org/2000/svg" viewBox="0 0 213.21 52.54"><defs><style>.cls-1{fill:#338b4f;}</style></defs><title>Recurso 1</title><g id="Capa_2" data-name="Capa 2"><g id="Layer_1" data-name="Layer 1"><path class="cls-1" d="M25.23,34.83H8.64V52H0V10H27.31v7H8.64V27.86H25.23Z"/><path class="cls-1" d="M47.84,36.61H41V52H32.32V10H47.9a23.76,23.76,0,0,1,6.51.82,13.63,13.63,0,0,1,4.87,2.42,10.61,10.61,0,0,1,3.05,4A13.2,13.2,0,0,1,63.4,22.7a15.16,15.16,0,0,1-.52,4.13A10.77,10.77,0,0,1,59,32.58a15.45,15.45,0,0,1-3.11,1.84L65,51.56V52H55.71Zm-6.88-7h7a9.06,9.06,0,0,0,3-.45A5.73,5.73,0,0,0,53,27.9a5.29,5.29,0,0,0,1.28-2,7.13,7.13,0,0,0,.43-2.55,6.34,6.34,0,0,0-1.68-4.67Q51.39,17,47.9,17H41Z"/><path class="cls-1" d="M101.71,10V37.71a15.93,15.93,0,0,1-1.21,6.41,13,13,0,0,1-3.34,4.65,14.2,14.2,0,0,1-5.08,2.82,22.38,22.38,0,0,1-12.91,0,14.19,14.19,0,0,1-5.08-2.82,12.83,12.83,0,0,1-3.33-4.65,16.08,16.08,0,0,1-1.2-6.41V10H78.2V37.71q0,4.12,2,6a7.57,7.57,0,0,0,5.46,1.89,7.51,7.51,0,0,0,5.46-1.89q1.94-1.89,1.94-6V10Z"/><path class="cls-1" d="M124.29,41.57,133.8,10h9.62L128.81,52h-9L105.25,10h9.59Z"/><path class="cls-1" d="M172.6,33.79H156V45h19.47V52H147.36V10h28.06v7H156V27H172.6Z"/><path class="cls-1" d="M196.07,36.61h-6.88V52h-8.64V10h15.58a23.77,23.77,0,0,1,6.51.82,13.63,13.63,0,0,1,4.87,2.42,10.62,10.62,0,0,1,3.05,4,13.2,13.2,0,0,1,1.07,5.47,15.16,15.16,0,0,1-.52,4.13,10.76,10.76,0,0,1-3.86,5.75,15.47,15.47,0,0,1-3.11,1.84l9.07,17.14V52h-9.28Zm-6.88-7h7a9.05,9.05,0,0,0,3-.45,5.73,5.73,0,0,0,2.13-1.27,5.29,5.29,0,0,0,1.28-2,7.13,7.13,0,0,0,.43-2.55,6.33,6.33,0,0,0-1.69-4.67q-1.68-1.7-5.17-1.7h-6.94Z"/><path class="cls-1" d="M116.39,6.46c.53,1.1,1.33,1.07,2.39.6a4.53,4.53,0,0,1,5.47,1.75c-.38-2.13-1.07-4.27-3.68-4.74C117.19,3.45,116,5.56,116.39,6.46Z"/><path class="cls-1" d="M132.28,6.92c-1.07,1-2.78,0-4.53,0a3.16,3.16,0,0,0-3.12,2.86c0,.15-.34.17-.38,0A6.27,6.27,0,0,1,128.95,4C133.09,3,132.82,6.43,132.28,6.92Z"/><path class="cls-1" d="M119.81.72a1.49,1.49,0,0,0-.38,2.58c.8.74,2.9,0,4.6,3.38C124,4.32,123,.26,119.81.72Z"/><path class="cls-1" d="M127,0c-1.15-.17-2.61.61-2.81,3.39a14.91,14.91,0,0,0,.25,4.5,5.85,5.85,0,0,1,3.41-4C129.93,3,129,.3,127,0Z"/><polygon class="cls-1" points="124.27 12.02 132.12 11.82 132.6 10.21 116.03 10.21 124.31 37.71 128.77 22.94 124.88 22.77 128.87 22.59 129.39 20.88 125.62 20.69 129.5 20.5 129.93 19.07 126.11 18.89 130.05 18.69 130.6 16.84 124.52 16.64 130.73 16.44 131.31 14.5 125.33 14.3 131.43 14.11 132 12.21 124.27 12.02"/></g></g></svg>