<svg xmlns="http://www.w3.org/2000/svg" viewBox="0 0 400 131.93"><defs><style>.cls-1{fill:#009150;}.cls-2,.cls-47{fill:#ff8570;}.cls-11,.cls-12,.cls-13,.cls-14,.cls-16,.cls-17,.cls-18,.cls-19,.cls-2,.cls-20,.cls-21,.cls-23,.cls-24,.cls-25,.cls-26,.cls-27,.cls-28,.cls-29,.cls-3,.cls-30,.cls-31,.cls-33,.cls-37,.cls-38,.cls-39,.cls-40,.cls-41,.cls-42,.cls-43,.cls-44,.cls-46,.cls-6,.cls-8{fill-rule:evenodd;}.cls-3{fill:#fc8f7c;}.cls-4{fill:#dcb875;}.cls-11,.cls-5{fill:#edc984;}.cls-6{fill:#caaa6a;}.cls-24,.cls-7{fill:#ffe176;}.cls-8,.cls-9{fill:#fcd133;}.cls-10{fill:#fcdea6;}.cls-12{fill:#f06465;}.cls-13{fill:#ffd6ce;}.cls-14{fill:#fa8577;}.cls-15{fill:#ffe6ce;}.cls-16,.cls-45{fill:#9fad3a;}.cls-17{fill:#8d9932;}.cls-18{fill:#f37159;}.cls-19{fill:#df644e;}.cls-20,.cls-32{fill:#b44535;}.cls-21{fill:#972b19;}.cls-22{fill:#dca188;}.cls-23{fill:#ce957b;}.cls-25{fill:#fcd424;}.cls-26{fill:#fff;}.cls-27{fill:#306767;}.cls-28,.cls-36{fill:#e0f3ff;}.cls-29{fill:#50d0d3;}.cls-30{fill:#c4f6f8;}.cls-31,.cls-34{fill:#f0f9ff;}.cls-33{fill:#a2e5e8;}.cls-35{fill:#e9ca89;}.cls-37{fill:#f4715a;}.cls-38{fill:#df624c;}.cls-39{fill:#d18f22;}.cls-40{fill:#9c6d20;}.cls-41{fill:#875b0a;}.cls-42{fill:#dd9725;}.cls-43{fill:#af7921;}.cls-44{fill:#9e6b0b;}.cls-46{fill:#803f24;}</style></defs><title>fruit-and-vegetables</title><g id="Capa_2" data-name="Capa 2"><g id="Layer_1" data-name="Layer 1"><rect class="cls-1" width="399.78" height="131.93"/><path class="cls-2" d="M362.71,26l2.63,29.26H333.57L336.21,26Z"/><path class="cls-3" d="M282.56,30.81,272.16,54l-2.33-1,10.4-23.23-16.34-7.32a2.18,2.18,0,0,1-1.09-2.87l5.93-13.25a2.18,2.18,0,0,1,2.87-1.09l35,15.68a2.18,2.18,0,0,1,1.09,2.87L301.77,37a2.18,2.18,0,0,1-2.87,1.09l-16.34-7.32Zm-5.63-12.14q3.55-1.95,4.19-2.38A3.23,3.23,0,0,0,282.48,15a1.37,1.37,0,0,0-.18-1.43,4.63,4.63,0,0,0-1.91-1.34,10.62,10.62,0,0,0-3.61-.77,13.77,13.77,0,0,0-4.51.48q-3.2.9-4.06,2.81a1.83,1.83,0,0,0-.07,1.5,2.14,2.14,0,0,0,1.18,1.09,4.21,4.21,0,0,0,3.42,0,2.85,2.85,0,0,0,1.64-1.23.51.51,0,0,0-.2-.69.76.76,0,0,1,0,.15,3.3,3.3,0,0,1-1.67,1.36,3.06,3.06,0,0,1-2.37.29l-.28-.11q-1.52-.68-.95-2a4,4,0,0,1,1.43-1.54,8.28,8.28,0,0,1,2.52-1.15,13.35,13.35,0,0,1,4.15-.53,9.12,9.12,0,0,1,3.41.65q1.68.75,1.18,1.89a3.86,3.86,0,0,1-1.6,1.5q-3.1,1.84-4,2.34l-.83-.37-.71-.3a.7.7,0,0,0-.49,0c-.18,0-.28.1-.31.16s0,.1,0,.13a12,12,0,0,0,1.87.59q-1.85.88-3.69,2a6.94,6.94,0,0,0-2,1.45c-.08.12,0,.24.28.36a1.16,1.16,0,0,0,.82.06l.56,0c.29,0,.44,0,.46-.08s0-.08-.16-.13-.36,0-.32-.07a7.35,7.35,0,0,1,2-1.39q1.86-1.08,2.92-1.62a1.81,1.81,0,0,1,.54.14l1.36.65q.63.28.73.06c0-.1-.07-.19-.34-.29l-.11,0-1.64-.79Zm17.77,9.64a3.84,3.84,0,0,1-3.35.49q.44-.54,1.44-2A8.46,8.46,0,0,1,294.3,25l.24-.13.36-.19a.65.65,0,0,0,.32-.31q.17-.39-.34-.62a4,4,0,0,0-1.41.36l-2.9,1-1.36.52A1.77,1.77,0,0,0,288.17,27a1.88,1.88,0,0,0,1,2,2.47,2.47,0,0,0,1.28.24l.67-.11a5.77,5.77,0,0,0,1.44.16,5.27,5.27,0,0,0,1.25-.27h-.1l-.93.69a1.55,1.55,0,0,0-.43.43q-.12.27.35.49a5.57,5.57,0,0,0,1.73-.92,12.84,12.84,0,0,1,5.13-1.38q-1.11.75-1.9,1.32a3.12,3.12,0,0,0-1.07,1.2q-.5,1.12.46,1.55a3.42,3.42,0,0,0,1.75-.27q2.24-.71,2.39-1c0-.07,0-.11,0-.13a.45.45,0,0,0-.28,0q-2.68,1.29-3.57.93-.28-.12-.11-.5a5.05,5.05,0,0,1,2.11-1.72l1.81-1,0-.09q.18-.4-.34-.64a6,6,0,0,0-2.62.17l-2.75.54a15.54,15.54,0,0,1,3.19-2,13.55,13.55,0,0,0,2.79-1.71q.07-.38-.14-.47h-.07q-.91-.1-4.22,2.13c-.76.51-1.48,1.11-2.27,1.57Zm-14.64-3.26a4.25,4.25,0,0,0,2.53,0l.56-.16.22-.4-.89.24a3.66,3.66,0,0,1-2.18,0,.72.72,0,0,1-.37-1.09,4.31,4.31,0,0,1,2-1.63l1.75-.91a.31.31,0,0,0,0-.33.44.44,0,0,0-.2-.29.52.52,0,0,0-.17-.06l-.54.07a1.43,1.43,0,0,1-.74-.08q-.5-.22-.35-.56l.62-.34a1.61,1.61,0,0,0,.77-.64q.15-.32-.23-.49-.57-.25-1.57,1a16.62,16.62,0,0,1-3.23,1.88,1,1,0,0,0-.49.35s0,.08.05.1a5.53,5.53,0,0,0,1.72-.72l1.89-1q0,.67.4.84l.22.08a7.23,7.23,0,0,0-1.39,1,4.08,4.08,0,0,0-1,1.33q-.6,1.34.61,1.89Zm3.84,1.88a4.2,4.2,0,0,0,2.49,0,19.67,19.67,0,0,0,1.91-.51l.22-.36-1.7.43a4,4,0,0,1-2.57.15.8.8,0,0,1-.42-1.2,2.05,2.05,0,0,1,.66-.81.79.79,0,0,0,.21.13,5.13,5.13,0,0,0,2.6.17q1.74-.21,2.14-1.12a.69.69,0,0,0,0-.6,1,1,0,0,0-.52-.47,4.25,4.25,0,0,0-3.22.34,4.55,4.55,0,0,0-2.6,2,1.3,1.3,0,0,0,.51,1.63,1.12,1.12,0,0,0,.3.19Zm5.15-3.29q.09-.19-.33-.38a2.42,2.42,0,0,0-1.46.11,7.92,7.92,0,0,0-2.38,1.05.72.72,0,0,0,.2.13,3.71,3.71,0,0,0,1.94.08,3.17,3.17,0,0,0,1.93-.86.45.45,0,0,0,.1-.13Zm0,2.89a1.3,1.3,0,0,0,0,1.06,1.37,1.37,0,0,0,1.44.85q.4,0,1.31-1.2a15.13,15.13,0,0,0,1.42-2.15l.31-.52a17.29,17.29,0,0,0-2.67.86,4.2,4.2,0,0,0-1.67.93,1.2,1.2,0,0,0-.1.17Zm-8.38,2.27,2.33,1,15.21,6.81a1.93,1.93,0,0,0,2.55-1L306,23.92a1.93,1.93,0,0,0-1-2.55L272.28,6.71a1.93,1.93,0,0,0-2.55,1l-5.27,11.76a1.93,1.93,0,0,0,1,2.55Z"/><path class="cls-3" d="M101.73,69.13l13,20.89-2.1,1.3-13-20.89L83.82,80.26a2.11,2.11,0,0,1-2.89-.67L73.52,67.67a2.1,2.1,0,0,1,.67-2.89l33.72-21a2.1,2.1,0,0,1,2.89.67l7.41,11.92a2.1,2.1,0,0,1-.67,2.89l-15.81,9.83ZM84.55,72.59a18.85,18.85,0,0,1,.74-4.51q.94-3.52,2.28-4.53-.18,2.65-.14,4.12a7.11,7.11,0,0,0,.66,3.25,1.32,1.32,0,0,0,.61.55q.13,0,.41-.12a2.49,2.49,0,0,0,.66-.81q.38-.64.28-.8s0,0-.09,0a5.33,5.33,0,0,0-.44.59,4.46,4.46,0,0,1-.45.58.25.25,0,0,1-.23.08.42.42,0,0,1-.21-.2,6.77,6.77,0,0,1-.52-2.91,17.41,17.41,0,0,1,.41-4.4q.21-.93,0-1.08a.59.59,0,0,0-.8-.14.61.61,0,0,0-.19.18,19.55,19.55,0,0,0-2.75,5.79,10.08,10.08,0,0,0-.42,1.73,8.48,8.48,0,0,0-.67-4.37,1.19,1.19,0,0,0-.8-.59,1.85,1.85,0,0,0-1.24.38,6.27,6.27,0,0,0-1.49,1.35,5.75,5.75,0,0,0-1,1.7q-1.15,3.26-.11,4.93a1.78,1.78,0,0,0,1.12.86,1.8,1.8,0,0,0,1.39-.29,2.84,2.84,0,0,0,1.07-1.14A2.49,2.49,0,0,0,83,71.57a1.63,1.63,0,0,0-.16-.74q-.23-.36-.5-.19s-.06.05,0,.07l0,0c.1,0,.21.07.31.24a1.29,1.29,0,0,1,.12.76,2.62,2.62,0,0,1-1.36,2.08l-.09.05a1.06,1.06,0,0,1-1.6-.46,3.88,3.88,0,0,1-.48-2,8.92,8.92,0,0,1,.52-2.91,5.17,5.17,0,0,1,2-2.85q.7-.43,1.12-.16a1.56,1.56,0,0,1,.46.48,5.5,5.5,0,0,1,.56,2.52q0,.8,0,3a8.24,8.24,0,0,0,.09,2.5q.1.16.41,0a1.06,1.06,0,0,0,.42-.41.69.69,0,0,0,.09-.24.19.19,0,0,1-.2-.11,1.65,1.65,0,0,1-.07-.68Zm7.25-8.76-.07,0-.14-.11a.55.55,0,0,0-.62,0,3.57,3.57,0,0,0-1.33,2.33,3.49,3.49,0,0,0,.07,2.54.79.79,0,0,0,.64.39,1.09,1.09,0,0,0,.65-.15,2.16,2.16,0,0,0,.57-1.12l.26-1.05A1.89,1.89,0,0,0,92,67a.82.82,0,0,0,.91.41.59.59,0,0,0,.2-.08q.54-.33.8-1.92L93.77,65q-.3,1.87-.76,2.15-.18.11-.39-.1L92.57,67a3.79,3.79,0,0,1-.18-1.78,12.18,12.18,0,0,0,0-1.44s-.09-.06-.2-.08a.39.39,0,0,0-.28,0l-.13.13Zm-1.56,4.62q.24.38.51.22.62-.39.85-2.41L91.75,64a.35.35,0,0,0-.37,0,3.54,3.54,0,0,0-1.1,2.09,3.21,3.21,0,0,0,0,2.35Zm5-7.13-.73.44a2.7,2.7,0,0,0,.08-1,.29.29,0,0,0-.29-.1.71.71,0,0,0-.32.08q-.11.07-.17.64t-.09.84l-.62.39-.09.07q-.21.23-.1.42t.46.05a1.48,1.48,0,0,0,.24-.19q0,.5.12,1.5a3.46,3.46,0,0,0,.36,1.44q.27.44.57.45a1.09,1.09,0,0,0,.63-.19A5.42,5.42,0,0,0,97.24,63v-.52a9.6,9.6,0,0,1-1.29,2.76,2.35,2.35,0,0,1-.57.58q-.55.34-.79-.06a3.64,3.64,0,0,1-.28-1.66,7.3,7.3,0,0,1,.07-1.55q.09-.1,1.31-1.1t1.17-1.1h-.05l-1.53,1Zm5.56,1.41a3.12,3.12,0,0,0,.51-1.14,22.19,22.19,0,0,0,.48-2.37l-.17-.27c-.07.69-.62,3.25-1.08,3.56-.1.07-.22,0-.34-.19a1.73,1.73,0,0,1-.15-1q0-.66.18-1.78a2.38,2.38,0,0,0,.06-.9q-.19-.3-.57-.06t-.44,1.69q-.18,1.53-.29,2-.3,1.42-.75,1.7-.13.08-.25-.11a3.4,3.4,0,0,1-.2-1.76,10.27,10.27,0,0,1,.26-2,.23.23,0,0,0,0-.18c-.08-.13-.21-.13-.41,0-.41.23-.31,1.85-.36,2.45A2.84,2.84,0,0,0,97.51,64l0,.07q.38.52.82.25.7-.43,1-2.63.05.16.14.48a2,2,0,0,0,.22.54.51.51,0,0,0,.4.25.67.67,0,0,0,.44-.08l.22-.15Zm3.73-2.33a3,3,0,0,0,1-1.5,7.57,7.57,0,0,0,.26-.86l-.09-.43c-.12.43-.25.8-.4,1.22a2.61,2.61,0,0,1-.88,1.28.51.51,0,0,1-.79-.22,3.06,3.06,0,0,1-.18-1.81l.16-1.39q0-.11-.18-.15a.31.31,0,0,0-.25,0l-.1.08-.17.34a1,1,0,0,1-.34.4q-.33.21-.47,0l0-.5a1.15,1.15,0,0,0-.07-.71q-.13-.21-.38-.06t0,1.32c0,.2,0,.82,0,1.45l.2.32.15-1.52q.4.26.65.1l.13-.1a5.18,5.18,0,0,0,0,1.22,2.9,2.9,0,0,0,.38,1.13q.55.89,1.35.39Zm3.57-6.73-.07,0-.14-.11a.55.55,0,0,0-.62,0A3.57,3.57,0,0,0,106,55.9a3.49,3.49,0,0,0,.07,2.54.79.79,0,0,0,.64.39,1.08,1.08,0,0,0,.65-.15,2.17,2.17,0,0,0,.57-1.12l.26-1.05a1.87,1.87,0,0,0,.18.39.81.81,0,0,0,.91.41.6.6,0,0,0,.2-.08q.55-.34.82-2l-.17-.44q-.31,1.91-.76,2.19-.18.11-.39-.1l-.05-.06a3.79,3.79,0,0,1-.18-1.78,11.85,11.85,0,0,0,0-1.44s-.09-.06-.2-.08a.39.39,0,0,0-.28,0l-.13.13Zm-1.56,4.62q.24.39.51.22.62-.39.85-2.41l.16-2.27a.35.35,0,0,0-.37,0,3.54,3.54,0,0,0-1.1,2.09,3.21,3.21,0,0,0,0,2.35Zm4.48-2.74a1.81,1.81,0,0,1-.24-.8c0-.16,0-.29,0-.39s0-.25,0-.44,0-.48,0-.86.05-1,.13-2l.16-1.86a.3.3,0,0,0-.23-.1.45.45,0,0,0-.27.06q-.52.33-.51,3.14a16.75,16.75,0,0,0,.14,2.45,2.65,2.65,0,0,0,.32.92.68.68,0,0,0,.57.36,1.23,1.23,0,0,0,.7-.21,3.38,3.38,0,0,0,1.05-2.29,3.08,3.08,0,0,0,.09-.83s-.06,0-.11,0-.08.13-.1.3a6,6,0,0,1-.45,1.69,2.1,2.1,0,0,1-.68.94.35.35,0,0,1-.55-.1ZM99,69.43l2.1-1.3,15-9.3a1.83,1.83,0,0,0,.59-2.51l-6.45-10.37a1.83,1.83,0,0,0-2.51-.59l-32,19.91a1.83,1.83,0,0,0-.59,2.51l6.45,10.37a1.83,1.83,0,0,0,2.51.59Z"/><rect class="cls-4" x="116.32" y="20.87" width="155.59" height="96.36"/><rect class="cls-5" x="112.36" y="48.46" width="163.51" height="4.9"/><rect class="cls-5" x="112.36" y="88.78" width="163.51" height="4.9"/><polygon class="cls-6" points="116.32 63.4 264.11 63.4 271.91 53.36 116.32 53.36 116.32 63.4"/><polygon class="cls-6" points="116.32 103.66 264.11 103.66 271.91 93.61 116.32 93.61 116.32 103.66"/><rect class="cls-7" x="212.21" y="34.72" width="19.07" height="10" rx="1.05" ry="1.05"/><path class="cls-8" d="M229.54,34.72h.7a1,1,0,0,1,1,1v7.91a1,1,0,0,1-1,1h-.7Z"/><circle class="cls-9" cx="214.91" cy="36.53" r="0.88"/><circle class="cls-9" cx="217.07" cy="40.91" r="1.26"/><circle class="cls-9" cx="225.15" cy="37.31" r="1.26"/><circle class="cls-9" cx="221.02" cy="37.93" r="0.88"/><circle class="cls-9" cx="223.42" cy="42.09" r="1.02"/><rect class="cls-10" x="209.08" y="44.4" width="25.34" height="2.8" rx="1.4" ry="1.4"/><path class="cls-11" d="M221.75,44.4H233a1.4,1.4,0,0,1,1.4,1.4h0a1.41,1.41,0,0,1-1.4,1.4H221.75Z"/><path class="cls-12" d="M186.86,33.79c-2.55,3.38-2.71,9.58,2.55,12.51a11.68,11.68,0,0,0,13.72-1.92c4-4.14,1.47-9.2-2.15-8.59-4.18.7-5-.2-5.8-1.28C192.83,31.45,189.57,30.18,186.86,33.79Z"/><path class="cls-13" d="M187.07,33.94a8.23,8.23,0,0,0,2.55,12.17A11.39,11.39,0,0,0,203,44.17c3.89-4,1.32-8.66-2.21-8.06-4.08.69-5-.31-5.77-1.36C192.73,31.76,189.72,30.43,187.07,33.94Z"/><path class="cls-14" d="M187.7,34.38A7.6,7.6,0,0,0,190,45.63a10.5,10.5,0,0,0,12.33-1.72c3.59-3.72,1.23-7.67-2-7.12-3.76.63-4.47-.18-5.21-1.15C193,32.88,190.14,31.14,187.7,34.38Z"/><path class="cls-12" d="M199.84,38a2.46,2.46,0,0,1,3.38,2.7c-.73,3.19-8.42,4.49-7.68-1.29C195.94,36.32,197.8,38.6,199.84,38Z"/><circle class="cls-15" cx="200.96" cy="40.1" r="1.72"/><path class="cls-16" d="M173.72,84.72c2.2-1.75,5.12-4.05,4.94-4.75a2.37,2.37,0,0,1,.16-2.85,2.23,2.23,0,0,1-1.1-2.46c.5-2,3.79-2.77,5.5-.89A3.57,3.57,0,0,1,187,75.9c1.73.81,3.27,4.43,2.08,6.79-.23,1.2.06,2.92-1,4.17-.83,1-3.36,1.58-4.35.65-1.75-1.65,0-3.64-2.67-3.63-1.77,0-3.78,1.73-5.08,2.8A2.27,2.27,0,0,1,173.72,84.72Z"/><path class="cls-17" d="M187.57,76.27c1.47,1.23,2.57,4.33,1.52,6.43-.23,1.2.06,2.92-1,4.17-.83,1-3.36,1.58-4.35.65-1.75-1.65,0-3.64-2.67-3.63-1.77,0-3.78,1.73-5.08,2.8a1.75,1.75,0,0,1-1.08-.24,14.53,14.53,0,0,1,5.66-3.14c1.12.65,2.26.39,3,.71,1.59,2.45,4.18.09,3.42-1.6a3.77,3.77,0,0,1-.75-.65C189.47,81.6,188.59,78.22,187.57,76.27Z"/><path class="cls-17" d="M183.31,73.72c3.43-.44,5.21,3.37,2,4.51C187.19,76.29,185.57,74.33,183.31,73.72Z"/><path class="cls-17" d="M182.24,76.42c1.51-2.45-1.48-3.57-3.3-3.26a3.58,3.58,0,0,1,3.89.26C183.87,74.23,183.09,76.29,182.24,76.42Z"/><path class="cls-17" d="M179.09,77.1a4.8,4.8,0,0,1,4.75,1.6c2.43,3-2.8,6.72-5.23,2.24,2.4,6.22,8,3.78,7.67-.37a4.41,4.41,0,0,0-1.37-2.81A4.62,4.62,0,0,0,179.09,77.1Z"/><path class="cls-16" d="M223.34,80.27c2.12-.24,4-1.72,5.66-2.91l.2.32c-1.33,1-2.7,1.9-4.15,2.79a34.3,34.3,0,0,0,4.6-2.14l.13.42a28.33,28.33,0,0,1-5,2.33,24.35,24.35,0,0,0,5.27-2l0,.42a54.46,54.46,0,0,1-6,2.3l-1.13.31L222.75,81Z"/><path class="cls-17" d="M223.34,80.27c1.26.75,4.11-1.5,5.81-2.69l.05.1c-1.14.83-2.32,1.64-3.54,2.41a3.2,3.2,0,0,1-1.42.6c0,.12.08.25.13.25a27.88,27.88,0,0,0,5.38-2.3l0,.11A27.34,27.34,0,0,1,225.07,81a5.32,5.32,0,0,0-.63.2.43.43,0,0,0,.1.31,27.8,27.8,0,0,0,5.54-2.1v.16a54.46,54.46,0,0,1-6,2.3l-1.13.31L222.75,81Z"/><path class="cls-16" d="M214.06,77.77a38.3,38.3,0,0,0,5.65-3.06l.23.35c-1.23.78-2.6,1.63-3.87,2.34a14.15,14.15,0,0,0,4.46-2.45l.23.4a24.25,24.25,0,0,1-4,2.67c1.84-.22,3.33-.53,5.07-.88l0,.35c-1.7.64-4.79.74-7.19,1.78Z"/><path class="cls-17" d="M214.06,77.77c.16-.07.36-.14.48-.21,1.41,0,3.6-1.51,5.34-2.61l.05.1c-1.23.78-2.6,1.63-3.87,2.34-.49.27-1,.48-1.09.55l.2.32c1.59-.25,4.7-2.26,5.51-3l.07.11a16.36,16.36,0,0,1-5.44,3.2c1.84-.22,4.79-.81,6.52-1.17v.11c-1.7.64-4.79.74-7.19,1.78Z"/><path class="cls-18" d="M223.89,82.08a3.7,3.7,0,0,0-1-2.93c-.73-.72-1.69-.59-2.85-.22s-2.41.8-3.42,1.2c-3,1.15-10.16,4.25-12.38,5.3-1.59.75-.71,1,.19,1.08a59.29,59.29,0,0,0,10.42-.78c2.18-.3,4.35-.65,6.38-1.07C223.08,84.28,223.85,83.81,223.89,82.08Z"/><path class="cls-19" d="M223.89,82.08a3.7,3.7,0,0,0-1-2.93l-.07-.06a4.26,4.26,0,0,1,.39,2.09c0,1.73-.81,2.2-2.68,2.58-2,.41-4.2.77-6.38,1.06-3.33.46-7.35,1.24-10.73,1.13-.3.37.34.53,1,.56a59.29,59.29,0,0,0,10.42-.78c2.18-.3,4.35-.65,6.38-1.07C223.08,84.28,223.85,83.81,223.89,82.08Z"/><path class="cls-18" d="M215.07,79.29c-.43-1.23-1.55-3.15-3.08-2.6a40.29,40.29,0,0,0-5.23,3.13c-2.16,1.34-5.9,3.59-7.57,4.7s-2.73,2.14-2.42,2.6,1,.32,3.07-.15c1.8-.41,5.47-1.41,7.91-2.22a44.86,44.86,0,0,0,6.49-2.52A2.36,2.36,0,0,0,215.07,79.29Z"/><path class="cls-19" d="M215.07,79.29a4.76,4.76,0,0,0-1.77-2.49,6.34,6.34,0,0,1,.86,1.65,2.36,2.36,0,0,1-.83,2.95,48.94,48.94,0,0,1-7,2.91c-2.34.77-7.5,2.42-9.51,2.91.32.21,1.16.17,3-.24s5.47-1.41,7.91-2.22a44.86,44.86,0,0,0,6.49-2.52A2.36,2.36,0,0,0,215.07,79.29Z"/><path class="cls-19" d="M211.32,79.43a6,6,0,0,0-.89-1.91A6.93,6.93,0,0,0,211.32,79.43Z"/><path class="cls-19" d="M209.73,81.14a6.05,6.05,0,0,0,.78,2A7,7,0,0,0,209.73,81.14Z"/><path class="cls-19" d="M208.28,80.78a4.21,4.21,0,0,0-.61-1.32A4.76,4.76,0,0,0,208.28,80.78Z"/><path class="cls-19" d="M210.9,81.54A8.06,8.06,0,0,0,209.73,79,9.15,9.15,0,0,0,210.9,81.54Z"/><path class="cls-19" d="M207.17,81.78a6.08,6.08,0,0,0,.78,2A6.92,6.92,0,0,0,207.17,81.78Z"/><path class="cls-19" d="M204,83.33a6.08,6.08,0,0,0,.78,2A6.92,6.92,0,0,0,204,83.33Z"/><path class="cls-19" d="M206,82.91a4.18,4.18,0,0,0-.61-1.32A4.78,4.78,0,0,0,206,82.91Z"/><path class="cls-19" d="M202.22,85.33A4.17,4.17,0,0,0,201.6,84,4.8,4.8,0,0,0,202.22,85.33Z"/><path class="cls-19" d="M213.63,81.3a8,8,0,0,0-1.17-2.53A9.15,9.15,0,0,0,213.63,81.3Z"/><path class="cls-19" d="M220.34,81.08a6.08,6.08,0,0,0-.54-2A6.89,6.89,0,0,0,220.34,81.08Z"/><path class="cls-19" d="M218.47,82.49a6.07,6.07,0,0,0,.42,2.06A6.92,6.92,0,0,0,218.47,82.49Z"/><path class="cls-19" d="M217.11,81.88a4.19,4.19,0,0,0-.37-1.41A4.82,4.82,0,0,0,217.11,81.88Z"/><path class="cls-19" d="M219.56,83.08a8,8,0,0,0-.71-2.7A9.16,9.16,0,0,0,219.56,83.08Z"/><path class="cls-19" d="M215.84,82.67a6.07,6.07,0,0,0,.42,2.06A6.89,6.89,0,0,0,215.84,82.67Z"/><path class="cls-19" d="M212.5,83.64a6.07,6.07,0,0,0,.42,2.06A6.89,6.89,0,0,0,212.5,83.64Z"/><path class="cls-19" d="M214.5,83.58a4.19,4.19,0,0,0-.37-1.41A4.76,4.76,0,0,0,214.5,83.58Z"/><path class="cls-19" d="M210.34,85.28a4.19,4.19,0,0,0-.37-1.41A4.74,4.74,0,0,0,210.34,85.28Z"/><path class="cls-19" d="M222.29,83.33a8,8,0,0,0-.71-2.7A9.16,9.16,0,0,0,222.29,83.33Z"/><path class="cls-20" d="M145.09,41.79h29.75A3.23,3.23,0,0,1,178.06,45h0a3.23,3.23,0,0,1-3.22,3.22H145.09A3.23,3.23,0,0,1,141.87,45h0A3.23,3.23,0,0,1,145.09,41.79Z"/><path class="cls-20" d="M140.17,42.71,142.47,45l-2.31,2.31c-1.48-1.48,0-1.88.11-2.39S138.89,44,140.17,42.71Z"/><path class="cls-21" d="M179.76,42.71,177.45,45l2.31,2.31c1.48-1.48,0-1.88-.11-2.39S181,44,179.76,42.71Z"/><path class="cls-21" d="M160,41.79h14.87A3.23,3.23,0,0,1,178.06,45h0a3.23,3.23,0,0,1-3.22,3.22H160Z"/><circle class="cls-22" cx="159.96" cy="45.02" r="2.75"/><path class="cls-23" d="M160,42.27a2.75,2.75,0,1,1,0,5.5Z"/><path class="cls-24" d="M243.07,69.53c0,.28-.46,1-.47,1.26a3.54,3.54,0,0,1-.27,1.76c-.51.87-1.61,1.39-2.4,2.56a17.25,17.25,0,0,1-4.8,5.19c-2.52,1.67-5.19,2-7.2,2.61a9.44,9.44,0,0,0-2.55,1.37c-.29.19.61,1.63,1.08,1.83a9.5,9.5,0,0,0,4.07,1.1l1.33-.12a3.21,3.21,0,0,1-.18-1.1h0a17,17,0,0,0,7.16-3.06c2.47-1.93,4.54-4.92,4.56-7.48a3.4,3.4,0,0,0-.25-1.26,7,7,0,0,0,.46-2.58,8.5,8.5,0,0,1,.6,2.85c0,.29-.41.81-.5,1.27a10.09,10.09,0,0,1-2.45,5.22,14.48,14.48,0,0,1-9.42,5.15,4,4,0,0,0,.11,1c3.3,3.71,8.78,2,12.23-1.58,2-2.1,4.44-7.65,2.72-10.38-.45-.72-1.09-1.33-1.52-2.1a17.93,17.93,0,0,1-.93-2.83A1.46,1.46,0,0,0,243.07,69.53Z"/><path class="cls-25" d="M243.66,69.58c0,.28-.57,1.17-.58,1.48a4.13,4.13,0,0,1-.29,1.91c-1.23,2.11-.05,2.6-3.34,6.15-4.65,5-9.72,6.42-13.94,5.8a2.82,2.82,0,0,0,1,1.19c.87.32,2.67,1.23,4.07,1.1l1.33-.12a3.21,3.21,0,0,1-.18-1.1h0a17,17,0,0,0,7.16-3.06c2.47-1.93,4.54-4.92,4.56-7.48a3.4,3.4,0,0,0-.25-1.26,7,7,0,0,0,.46-2.58l.46-1.78A1.37,1.37,0,0,0,243.66,69.58Z"/><path class="cls-8" d="M243.89,70.7c.49,1.61,1,3,1.21,3.66a10.08,10.08,0,0,1-2.72,9.23c-2.43,2.55-6.43,4.38-10.48,3.07,0,.15.06.29.08.44,3.3,3.71,8.78,2,12.23-1.58,2-2.1,4.44-7.65,2.72-10.38-.45-.72-1.09-1.33-1.52-2.1a17.93,17.93,0,0,1-.93-2.83,3,3,0,0,0-.39-.39Z"/><path class="cls-26" d="M152,48h-.1c-.18,1.26-2.89,1.21-3-.13h-.11c-.1,1.2-3,1.2-3.09,0l-.13,0v0c-.51,1-1.91.74-1.92-.83a92.32,92.32,0,0,1,.46-10.52c.21-2.14-.29-2.41,1.39-3.66l1.33-7.61H155l-1.36,7.77a3.21,3.21,0,0,1,2.1,2.56c.15.76.86,3.42,1,5,.07.74.1,1.22-.25,1.23l-1.38.05c0,1.17.08,1.52.08,5.83C155.2,49.43,152,49.12,152,48Z"/><path class="cls-27" d="M144.75,33l10.4,0c.1-2.12.21-27.63.35-33H144.79C144.76,5.52,144.75,31.23,144.75,33Z"/><path class="cls-28" d="M149.83,79.24l-7.24-.07-2,2.44-5,.59-4.21.07,2.81,3.47s6.5.3,6.95.22a69.77,69.77,0,0,0,6.95-3.62A18.27,18.27,0,0,0,149.83,79.24Z"/><path class="cls-26" d="M252.5,30.23c2,.55,2.46,2.41,4.92,4.19,1.62,1.17,5.27,1.33,7.12,2.22l-2.86,9.3c-2-.83-3.12-1.12-3.76-.59a8.34,8.34,0,0,1-6,1.75c-1.15,0-10.63-.81-11.44-1.23-.08,0-2.34-12-1.87-14.64C239.06,29,250,29.52,252.5,30.23Z"/><polygon class="cls-29" points="258.98 33.83 257.48 46.88 400 47.61 400 34.91 258.98 33.83"/><path class="cls-30" d="M248.43,17.89l.13.13q0,.37,0,.71a.32.32,0,0,1,0,.64c0,.57,0,1.08.09,1.56a20,20,0,0,0,1.47,5.55,11.9,11.9,0,0,1,1,4.65l-.07,14.18H240.92l-.07-14.18a11.92,11.92,0,0,1,1-4.65,20,20,0,0,0,1.47-5.55c0-.48.08-1,.09-1.56-.35,0-.35-.64,0-.64,0,0,0-.64,0-.71l.13-.13C245.49,17.83,246.51,17.83,248.43,17.89Z"/><path class="cls-31" d="M248.79,22a22.59,22.59,0,0,0,1.33,4.5,11.9,11.9,0,0,1,1,4.65l-.07,14.18a3.75,3.75,0,0,1-.42,2.09c-.73,1.08-8.61,1-9.31,0a3.77,3.77,0,0,1-.42-2.09l-.07-14.18a11.92,11.92,0,0,1,1-4.65,22.67,22.67,0,0,0,1.33-4.5C244.49,22,247.51,22,248.79,22Z"/><rect class="cls-32" x="243.42" y="17.25" width="5.13" height="1.47" rx="0.23" ry="0.23"/><path class="cls-33" d="M248.43,17.89l.13.13q0,.37,0,.71a.32.32,0,0,1,0,.64c0,.57,0,1.08.09,1.56a20,20,0,0,0,1.47,5.55,11.9,11.9,0,0,1,1,4.65l-.07,14.18L246,22.08V18.71C246.73,18.56,248.24,17.88,248.43,17.89Z"/><path class="cls-28" d="M248.79,22a22.59,22.59,0,0,0,1.33,4.5,11.9,11.9,0,0,1,1,4.65l-.07,14.18a3.75,3.75,0,0,1-.42,2.09c-.36.54-2.51.8-4.65.8V22C247.08,22,248.15,22,248.79,22Z"/><path class="cls-21" d="M246,17.25h2.33a.23.23,0,0,1,.23.23v1a.23.23,0,0,1-.23.23H246Z"/><path class="cls-26" d="M241,46.32a3.49,3.49,0,0,1-1.78-1.44,2.46,2.46,0,0,1,0-2.79c2-.29,3.93-.54,5.9-.8a1,1,0,0,1,.91,1.61c-.41.73-2.41,1.36-3.78,1.72-.82.21-1,.31-1.05.67a3.29,3.29,0,0,1-.2,1ZM239.16,42l.38-.1.65-.11,4.22-.56c1.37-.12,3.27-.24,4.06-.94a1.5,1.5,0,0,0,.58-1.67c-.16-.62-.48-1-1.19-.83A77.37,77.37,0,0,1,239,38.89c-.76.39-.72,1-.72,1.59s-.06,1.44.83,1.53Zm0-3.28a1,1,0,0,1-.87-1.08,3,3,0,0,1,.54-1.93,3,3,0,0,1,.91-.54c.7-.1,1.65-.14,2.83-.22a32.21,32.21,0,0,1,5.53-.12c1.47.29,1.5,2.36-.19,2.85-3.26.49-5.85.78-8.74,1Zm.66-4.51c-.86-.16-2-.17-2.38-.69-.56-.75-.06-3.19,1.29-3.21,1,0,2.27,0,3.51,0,1.87,0,3.55.16,3.44,1.65a1.83,1.83,0,0,1-1.72,1.7C242.27,33.94,241.38,34.13,239.84,34.22Z"/><path class="cls-26" d="M244.61,25.64c1.07.59,2.1,1.2,3.17,1.76,2.81,1.47,4.45,1.69,5.76,2.89a7.76,7.76,0,0,1,1.64,2.84l-1.56,5L251,33.74a8.73,8.73,0,0,0-2.74-2.55C245.93,29.91,242.89,28.09,244.61,25.64Z"/><path class="cls-31" d="M135,41.82h0a1,1,0,0,1-.85,1.07L128,43.6a1,1,0,0,1-1.07-.85h0a1,1,0,0,1,.85-1.07l6.07-.71A1,1,0,0,1,135,41.82Z"/><circle class="cls-34" cx="134.63" cy="40.88" r="0.96" transform="translate(-3.82 15.82) rotate(-6.63)"/><circle class="cls-35" cx="134.85" cy="42.82" r="0.96" transform="translate(-4.04 15.83) rotate(-6.62)"/><path class="cls-20" d="M129.61,42.44c.3,2.56-4.39,5.2-10.47,5.9-2.56.42-3.68-8.83-1.07-9.25C124.14,38.39,129.31,39.89,129.61,42.44Z"/><path class="cls-28" d="M135,41.82a1,1,0,0,1-.85,1.07L128,43.6a1,1,0,0,1-1.07-.85Z"/><circle class="cls-36" cx="134.85" cy="42.82" r="0.96" transform="translate(-4.04 15.83) rotate(-6.62)"/><path class="cls-21" d="M129.61,42.44c.3,2.56-4.39,5.2-10.47,5.9-1.3.21-2.22-2.05-2.48-4.4Z"/><path class="cls-37" d="M161.49,73.21c3.17,0,4.94.71,6.54,2.16,4.47,4.06.31,13.12-6.54,13.15s-11.11-8.88-6.57-13.12C156.61,73.83,158.2,73.21,161.49,73.21Z"/><path class="cls-38" d="M161.49,73.21c3.17,0,4.94.71,6.54,2.16,4.47,4.06.31,13.12-6.54,13.15h0V73.21Z"/><path class="cls-16" d="M161.31,73.75c0,.36-.09.75-.15,1.11a14.94,14.94,0,0,0-2.59-1.29c.3.3,1.55,1.39,1.37,1.72-.06.12-2.19-.31-3.52-.16.91.13,1.73.42,2.64.62,1.1.25,1.34.27,1.29,1a3.69,3.69,0,0,0,.25,1.62c.18-1.14.21-1.67,1.43-2,1.16-.1,2,.61,3,1.18-.55-1.28-2-1.6-1.39-2.13s2.72-.51,3.42-.29a5,5,0,0,0-3.65-.37,3.71,3.71,0,0,1,2-1,4,4,0,0,0-3.11,1c0-.3,0-.5,0-.8S161.32,73.63,161.31,73.75Z"/><path class="cls-17" d="M158.57,73.57a6.84,6.84,0,0,1,1.53,1.77c0-.58-.66-1.29-1.53-1.77Zm-2.14,1.57c.64.07,1.72.19,2.45.34a2,2,0,0,1,1.32.62,4.22,4.22,0,0,0-1.14-.34c-.91-.21-1.73-.49-2.64-.62Zm4.65,1.43a2,2,0,0,0-.47,1.86c.18-1.14.21-1.67,1.43-2,1.16-.1,2,.61,3,1.18-.77-.87-2.73-2.11-3.95-1.08ZM164,75.3a1.09,1.09,0,0,0-.45.34c.12-1.21,3.06-.68,3.53-.41a5.63,5.63,0,0,0-3.08.08Zm-.9-.08c.13-.07.18-.26.33-.36a3.71,3.71,0,0,1,2-1C164.88,73.86,163.27,74.05,163.08,75.22Z"/><path class="cls-17" d="M161.35,73.67c-.19.24.38.57.67.63a5.43,5.43,0,0,1,.13,1.26.32.32,0,0,1-.2.24.6.6,0,0,1-.85-.7c-.37.75.54,1.21,1.15.76.12-.09.13-.22.1-.43s-.06-.34-.08-.54,0-.56,0-.88S161.46,73.56,161.35,73.67Z"/><path class="cls-17" d="M146,65.25a4.85,4.85,0,0,0-4,.06,5.19,5.19,0,0,1,3.59-1.8,4.25,4.25,0,0,0-3.69.32,5.83,5.83,0,0,1,3.21-3,4,4,0,0,0-3.52,1.21,5.68,5.68,0,0,1,2.71-2.81,3.51,3.51,0,0,0-3.25,1.86,5.64,5.64,0,0,1,1.28-2.59,3,3,0,0,0-2,1.91l-.62-4.06-.68,4.06a3,3,0,0,0-2-1.91,5.64,5.64,0,0,1,1.28,2.59,3.51,3.51,0,0,0-3.25-1.86,5.68,5.68,0,0,1,2.71,2.81,4,4,0,0,0-3.52-1.21,5.83,5.83,0,0,1,3.21,3,4.25,4.25,0,0,0-3.69-.32,5.19,5.19,0,0,1,3.59,1.8,4.85,4.85,0,0,0-4-.06c2.66.51,3.76,1.34,5.53,3.84a1.77,1.77,0,0,1,1.46,0C142.23,66.59,143.33,65.76,146,65.25Z"/><path class="cls-39" d="M139.73,66.81c4.05,0,7.34,4.05,7.34,9.05,0,3.16-1.32,6.47-3.31,8.08-.58.47-1.92.62-3.59.61-1.33,0-3.3.06-4.4-.75-2.15-1.58-3.37-4.61-3.37-7.94C132.39,70.86,135.68,66.81,139.73,66.81Z"/><path class="cls-40" d="M144.66,69.15a11.28,11.28,0,0,1-1,1.47l-.26-.2a10.83,10.83,0,0,0,1-1.52l.24.25Zm-1.17,1.72A17.24,17.24,0,0,1,142,72.45l-.26-.2a17.07,17.07,0,0,0,1.46-1.58l.26.2Zm-1.7,1.81c-.5.47-1,.92-1.58,1.35l-.2.16-.27-.21.27-.21c.53-.41,1-.85,1.52-1.3l.26.2Zm-2.06,1.72-.27-.21c-.7.52-1.42,1-2.12,1.45l.27.22c.71-.44,1.42-.93,2.13-1.46ZM137.31,76c-.78.48-1.53.9-2.23,1.25l-.26-.24c.69-.35,1.45-.76,2.22-1.24l.27.22Zm-2.54,1.41a16.54,16.54,0,0,1-2.14.89l-.06-.33a15.78,15.78,0,0,0,1.94-.81Z"/><path class="cls-40" d="M146.26,71.73l-.32.44-.28-.17q.23-.31.44-.62l.15.35Zm-.52.7A20,20,0,0,1,144.35,74l-.29-.18a19.5,19.5,0,0,0,1.4-1.59l.28.18Zm-1.63,1.83c-.54.54-1.11,1.06-1.7,1.56l-.29-.18c.59-.5,1.17-1,1.71-1.55l.29.18Zm-2,1.78-.45.36c-.55.44-1.11.85-1.68,1.23l-.29-.2c.59-.4,1.19-.84,1.77-1.29l.36-.29.29.18Zm-2.42,1.79-.29-.2c-.77.51-1.53,1-2.26,1.36l.29.21c.74-.4,1.5-.87,2.26-1.38Zm-2.58,1.55a21.3,21.3,0,0,1-2.33,1.08l-.27-.22,0,0a19.87,19.87,0,0,0,2.34-1.06l.29.21Zm-2.69,1.21a10.06,10.06,0,0,1-1,.3l-.14-.3a8.6,8.6,0,0,0,.84-.24l.18.15Z"/><path class="cls-40" d="M147,75l-.26.32-.31-.14q.27-.32.52-.65c0,.16,0,.31,0,.47Zm-.48.58a22.06,22.06,0,0,1-1.6,1.64l-.31-.16a22,22,0,0,0,1.61-1.63l.31.14Zm-1.86,1.88c-.47.42-1,.83-1.45,1.22l-.65.5-.32-.17.76-.58c.46-.36.9-.74,1.33-1.12l.31.16Zm-2.38,1.94c-.75.55-1.51,1.06-2.27,1.53l-.31-.19c.75-.46,1.51-1,2.26-1.51l.32.17Zm-2.58,1.72-.31-.19c-.78.47-1.55.88-2.26,1.23l.32.21c.72-.36,1.48-.78,2.26-1.25Zm-2.6,1.42a20.89,20.89,0,0,1-1.92.82l-.26-.25a19.17,19.17,0,0,0,1.86-.78Z"/><path class="cls-40" d="M146.6,79.2c-.42.4-.86.78-1.3,1.15l-.36-.13c.63-.51,1.24-1.06,1.82-1.63,0,.2-.1.41-.15.61ZM145,80.6c-.77.62-1.57,1.2-2.35,1.71l-.34-.17c.78-.51,1.57-1.07,2.34-1.68l.36.13Zm-2.67,1.92c-.77.5-1.53.94-2.24,1.32l-.36-.18c.71-.37,1.47-.81,2.26-1.3l.34.17Zm-2.6,1.5-.36-.18c-.51.26-1,.47-1.43.65l.72,0C139,84.38,139.36,84.21,139.73,84Z"/><path class="cls-40" d="M142.51,67.48a12.19,12.19,0,0,1-.89,1.35l-.23-.23a11.84,11.84,0,0,0,.82-1.26l.3.14Zm-1.09,1.62A17.26,17.26,0,0,1,140,70.71l-.24-.23a16.8,16.8,0,0,0,1.46-1.62l.23.23Zm-1.69,1.84-.24-.23c-.42.4-.86.78-1.3,1.15l-.5.39.24.23.46-.37c.46-.37.91-.76,1.33-1.17Zm-2.06,1.74c-.68.51-1.37,1-2,1.4l-.24-.24c.67-.42,1.36-.88,2-1.39l.24.23Zm-2.33,1.58c-.75.46-1.47.85-2.13,1.16l-.22-.26c.65-.31,1.37-.69,2.11-1.15l.24.24Zm-2.43,1.31-.52.23c0-.12,0-.24,0-.36l.29-.13Z"/><path class="cls-41" d="M140,66.82l-.08.12-.09-.12Zm-.29.39a16.69,16.69,0,0,1-1.46,1.66l-.2-.26a16.22,16.22,0,0,0,1.45-1.67l.2.27ZM138,69.1c-.47.46-1,.89-1.47,1.31l-.34.27-.2-.26.33-.27c.51-.41,1-.85,1.48-1.31l.2.26ZM136,70.87c-.65.5-1.32,1-2,1.38l-.2-.26c.65-.41,1.32-.87,2-1.37l.2.26Zm-2.25,1.55-.95.56q.06-.23.13-.45l.62-.37Z"/><path class="cls-40" d="M134.81,69.15A17,17,0,0,0,139.26,74a28.34,28.34,0,0,0,7.56,4.3l.06-.32a28.09,28.09,0,0,1-7.41-4.24A16.45,16.45,0,0,1,135,68.9Z"/><path class="cls-40" d="M133.2,71.73a22.71,22.71,0,0,0,4.56,4.68A24.81,24.81,0,0,0,146,80.89l.13-.31A24.21,24.21,0,0,1,138,76.15a22.08,22.08,0,0,1-4.61-4.78Z"/><path class="cls-40" d="M132.43,75a23.75,23.75,0,0,0,3.79,3.68,31.41,31.41,0,0,0,8.15,4.71l.24-.26a30.71,30.71,0,0,1-8.18-4.7,22.84,22.84,0,0,1-3.94-3.9Q132.45,74.75,132.43,75Z"/><path class="cls-40" d="M132.82,79.16c.49.47,1,.91,1.52,1.34a30.56,30.56,0,0,0,6.49,4l.76,0a29.2,29.2,0,0,1-7-4.27,24.92,24.92,0,0,1-1.87-1.68Q132.74,78.87,132.82,79.16Z"/><path class="cls-40" d="M137,67.48a16.94,16.94,0,0,0,4.11,4.63,26.36,26.36,0,0,0,6,3.69c0-.12,0-.24,0-.36a26.21,26.21,0,0,1-5.79-3.58,16.66,16.66,0,0,1-4-4.52Z"/><path class="cls-40" d="M139.45,66.82a18.62,18.62,0,0,0,3.45,3.59,27.68,27.68,0,0,0,3.8,2.59c0-.15-.09-.3-.13-.45a27.25,27.25,0,0,1-3.46-2.39,18.63,18.63,0,0,1-3.26-3.34h-.4Z"/><path class="cls-16" d="M139.73,56.57l-.65,3.87a3,3,0,0,0-2-1.91,5.64,5.64,0,0,1,1.28,2.59,3.52,3.52,0,0,0-3.25-1.86,5.68,5.68,0,0,1,2.71,2.81,4,4,0,0,0-3.52-1.21,5.83,5.83,0,0,1,3.21,3,4.25,4.25,0,0,0-3.69-.32,5.19,5.19,0,0,1,3.59,1.8,4.85,4.85,0,0,0-4-.06c2.66.51,3.76,1.34,5.53,3.84.07-.11.4-.16.73-.16Z"/><path class="cls-42" d="M139.73,84.55c-1.3,0-3,0-4-.75-2.15-1.58-3.37-4.61-3.37-7.94,0-5,3.29-9.05,7.34-9.05Z"/><path class="cls-43" d="M139.73,74.4c-.7.53-1.42,1-2.12,1.46l-.27-.22c.7-.44,1.42-.92,2.12-1.45l.27.21ZM137.31,76c-.78.48-1.53.9-2.23,1.25l-.26-.24c.69-.35,1.45-.76,2.22-1.24l.27.22Zm-2.54,1.41a16.54,16.54,0,0,1-2.14.89l-.06-.33a15.78,15.78,0,0,0,1.94-.81Z"/><path class="cls-43" d="M139.73,77.84c-.76.51-1.53,1-2.26,1.38l-.29-.21c.73-.4,1.49-.85,2.26-1.36l.29.2Zm-2.58,1.55a21.3,21.3,0,0,1-2.33,1.08l-.27-.22,0,0a19.87,19.87,0,0,0,2.34-1.06l.29.21Zm-2.69,1.21a10,10,0,0,1-1,.3l-.14-.3a8.56,8.56,0,0,0,.84-.24l.18.15Z"/><path class="cls-43" d="M139.73,81.11c-.78.47-1.54.89-2.25,1.25l-.32-.21c.71-.35,1.48-.76,2.26-1.23l.31.19Zm-2.6,1.42a20.89,20.89,0,0,1-1.92.82l-.26-.25a19.17,19.17,0,0,0,1.86-.78Z"/><path class="cls-43" d="M139.73,84c-.37.19-.73.36-1.07.51l-.72,0c.43-.18.91-.39,1.43-.65l.36.18Z"/><path class="cls-43" d="M139.73,70.94c-.43.41-.88.8-1.33,1.17l-.46.37-.24-.23.5-.39c.45-.37.89-.75,1.31-1.15l.23.23Zm-2.06,1.74c-.68.51-1.37,1-2,1.4l-.24-.24c.67-.42,1.36-.88,2-1.39l.24.23Zm-2.33,1.58c-.75.46-1.47.85-2.13,1.16l-.22-.26c.65-.31,1.37-.69,2.11-1.15l.24.24Zm-2.43,1.31-.52.23c0-.12,0-.24,0-.36l.29-.13Z"/><path class="cls-43" d="M139.73,67.21a16.61,16.61,0,0,1-1.45,1.66l-.2-.26a16.28,16.28,0,0,0,1.45-1.67l.2.27ZM138,69.1c-.47.46-1,.89-1.47,1.31l-.34.27-.2-.26.33-.27c.51-.41,1-.85,1.48-1.31l.2.26ZM136,70.87c-.65.5-1.32,1-2,1.38l-.2-.26c.65-.41,1.32-.87,2-1.37l.2.26Zm-2.25,1.55-.95.56q.06-.23.13-.45l.62-.37Z"/><path class="cls-43" d="M134.81,69.15A17,17,0,0,0,139.26,74l.48.37V74l-.27-.21A16.45,16.45,0,0,1,135,68.9Z"/><path class="cls-43" d="M133.2,71.73a22.73,22.73,0,0,0,4.56,4.68c.65.51,1.31,1,2,1.43v-.39c-.59-.4-1.19-.84-1.77-1.29a22.08,22.08,0,0,1-4.61-4.78Z"/><path class="cls-43" d="M132.43,75a23.73,23.73,0,0,0,3.79,3.68,34,34,0,0,0,3.52,2.43v-.38a33.86,33.86,0,0,1-3.31-2.31,22.84,22.84,0,0,1-3.94-3.9Q132.45,74.75,132.43,75Z"/><path class="cls-43" d="M132.82,79.16c.49.47,1,.91,1.52,1.34A31.39,31.39,0,0,0,139.73,84v-.37a31.09,31.09,0,0,1-5.18-3.41,25,25,0,0,1-1.87-1.68Q132.74,78.87,132.82,79.16Z"/><path class="cls-43" d="M137,67.48a15.12,15.12,0,0,0,2.78,3.46v-.46a14.45,14.45,0,0,1-2.48-3.14Z"/><path class="cls-44" d="M139.45,66.82l.29.39v-.4h-.29Z"/><path class="cls-26" d="M151,79.8l-3.6,5.15-7.85,3.76c-1.91-.41-3.82-.91-5.73-1.32a36.54,36.54,0,0,1-7.08-2.9,5.72,5.72,0,0,0-2.64-.71,20.65,20.65,0,0,1-3.35-.13l.06-6.89,4.41-.22c6-1,8.18-1.41,14.19-.71,1.88.14,4.58-.23,4.78.92.41,2.31-1.67,2.3-5.62,1.95-2.12,1.3-3.23,1.43-3.21,2.35,0,1.42,2.38,3.32,5.4,3.32l4.63-1.29C147.33,81.18,147.28,78.91,151,79.8Z"/><rect class="cls-45" y="75.23" width="125.62" height="10.7"/><path class="cls-26" d="M206.8,77.62l-.12,0c-.39-1.42-3.48-1-3.45.58l-.12,0c-.28-1.37-3.64-.95-3.54.44l-.14,0v0c-.73-1.07-2.29-.58-2.08,1.23a106.81,106.81,0,0,0,2,12c.55,2.42,0,2.81,2.11,4l.65,2.13,9.51-.85-.8-2.62a3.71,3.71,0,0,0,2-3.24c0-.68.55-5.5.15-5.47l-1.59.13c-.13-1.34-.28-3.54-.89-8.49C210.29,75.58,206.65,76.38,206.8,77.62Z"/><path class="cls-24" d="M200.63,96.32l12,0c0,.71.07,15.06.1,35.66H200.63C200.63,111.27,200.62,96.91,200.63,96.32Z"/><path class="cls-28" d="M263.64,66l5.52-1.59c.53-.15,5,6.14,2.56,6l-3.61-.27-4.59,2.68c-.52.3-4.2-.28-4.63-.7a1.09,1.09,0,0,1,0-1.54C259.72,69.65,262.51,66.32,263.64,66Z"/><path class="cls-26" d="M262.57,65c.66-.19,3.68-1.12,5.5-1.58a5.56,5.56,0,0,1,1.93-.25,15.69,15.69,0,0,1,3.93.45c2.09.63,3.11,2,5.2,4.18v0l4.9,3.7.71,5.94a37.38,37.38,0,0,1-6.2-.49c-3.24-.4-6.79-.72-8-1l-3.78-1-.58-3.33c.78,0,1.45-.16,2.21-.2.32-.49,4.38-2.18.1-4.26a.39.39,0,0,1-.14-.12l-5.07.43L258.87,72a1.26,1.26,0,0,1-1.8-1.75l4.49-4.63.15-.13A2,2,0,0,1,262.57,65Z"/><rect class="cls-32" x="279.16" y="66.56" width="120.53" height="12.73"/><path class="cls-38" d="M255.64,92.36A13,13,0,0,1,250.56,83c-.2-3.13,1-6.11,4.44-7.56a8.31,8.31,0,0,1,4.4-.44,8.3,8.3,0,0,1,4.4.44c3.43,1.45,4.64,4.43,4.44,7.56a13,13,0,0,1-5.08,9.38c-1.27,1-2.27.48-3.73.46S256.93,93.33,255.64,92.36Z"/><path class="cls-37" d="M255.64,92.36A13,13,0,0,1,250.56,83c-.2-3.13,1-6.11,4.44-7.56a8.29,8.29,0,0,1,4.37-.44V92.82C257.91,92.82,256.92,93.32,255.64,92.36Z"/><path class="cls-16" d="M259.23,75.22a3.7,3.7,0,0,0-.88-1.77c-.84-1.08-1.68-.82-4.06-.67,1.85-2,4.74-2.37,5.13.44A6.55,6.55,0,0,1,259.23,75.22Z"/><path class="cls-17" d="M259.23,75.22c-.05-4-2.53-3.87-4.94-2.43,1.85-2,4.74-2.37,5.13.44A6.55,6.55,0,0,1,259.23,75.22Z"/><path class="cls-16" d="M259.46,75.47a2.31,2.31,0,0,1,.72-1c.62-.57,1.11-.33,2.55,0-.92-1.42-2.65-1.94-3.18-.27A4.1,4.1,0,0,0,259.46,75.47Z"/><path class="cls-17" d="M259.46,75.47c.7-2.46,1.66-2.3,3.27-1-.92-1.42-2.65-1.94-3.18-.27A4.1,4.1,0,0,0,259.46,75.47Z"/><path class="cls-46" d="M259.21,75.66c-.06-2.49.09-3.68.11-4.91a1.23,1.23,0,0,1,.7.92c-.53,1.31-.38,2.29-.49,4.06C259.48,75.84,259.21,75.77,259.21,75.66Z"/><path class="cls-26" d="M270.54,76c-1.18-.13-2.32-.75-4.13-.93l-5.78-.58a1.56,1.56,0,0,1-1.5-1.5,1.5,1.5,0,0,1,1.5-1.5c2.57,0,5.19.07,7.76-.05Z"/><path class="cls-3" d="M14.61,38.27,33.43,18.54h0l.06-.06h0A1.69,1.69,0,0,1,34.66,18h0a1.69,1.69,0,0,1,1.17.47l.06.06L54.72,38.27l0,0a2.22,2.22,0,0,1,1.7,2.15V55.27a2.22,2.22,0,0,1-2.22,2.22H15.09a2.22,2.22,0,0,1-2.22-2.22V40.46a2.22,2.22,0,0,1,1.7-2.15l0,0Zm22-18.18s0,.06,0,.1a1.91,1.91,0,0,1-3.81,0s0-.06,0-.1L15.51,38.16h38.3L36.57,20.09ZM17.85,47.77c0,4.38,1.37,4.8,3.73,4.8s3.71-.55,3.71-4.8c0-4.51-1.43-4.94-3.71-4.94s-3.73.43-3.73,4.94Zm1,0c0,3.38.68,3.82,2.76,3.82s2.73-.55,2.73-3.82c0-3.93-.95-4-2.73-4s-2.76,0-2.76,4Zm8.83,4.73h1V48.34c.07,0,2.46.26,3,.26,1,0,2.3-.17,2.3-2.92,0-2.35-1.26-2.79-2.3-2.79h-4v9.61Zm1-4.87h3c.68,0,1.31-.2,1.31-1.94s-.85-1.8-1.31-1.8h-3v3.75Zm7.91,3.27c0,1.48.92,1.71,1.79,1.66l4-.22v-.75h-4c-.38,0-.8,0-.81-.68V48.27l4.31-.13v-.78l-4.31-.13V44.61c0-.35,0-.74.68-.74h4.15v-.76l-4.15-.21a1.5,1.5,0,0,0-1.66,1.71V50.9ZM45,52.51h1V44.71l5.14,7.79h1V42.9h-1v7.8L46,42.9H45Z"/><path class="cls-2" d="M334.84,89.49v2.05a4.67,4.67,0,0,1,3.78,4.69v25.43c-2.13.73-9.09,1-11.2,0V96.23a4.67,4.67,0,0,1,3.78-4.69V89.49Zm0-6.91v5.64H331.2V82.58h-.4V79.89h4.42v2.69Zm2.94,19.65h-9.51V114h9.51v-11.8Z"/><path class="cls-2" d="M357.69,90.87c-2-4-7.89-7.06-13.16-3.4a12.43,12.43,0,0,0-4.56,14c2.09,5.75,8.11,5.7,9.21,1.94,1.28-4.33,2.51-4.67,3.93-5,4-.8,6.76-3.33,4.58-7.61Zm-1,.53c2,3.84-1,5.75-4.64,6.47-1.27.25-2.38.56-3.53,4.45-1,3.37-5.87,3.79-7.76-1.38a11.17,11.17,0,0,1,4.1-12.6c4.73-3.29,10-.56,11.82,3.05Zm-10,10.82a1.83,1.83,0,1,1-.84-2.44,1.83,1.83,0,0,1,.84,2.44Zm10.47-11.07c2.07,4.05-.54,6.26-4.35,7-1.34.27-2.67.65-3.88,4.75-1,3.56-6.52,3.85-8.51-1.6A11.79,11.79,0,0,1,344.72,88,8.52,8.52,0,0,1,357.19,91.14Z"/><path class="cls-2" d="M353,110.29l-2.58,14.28a4.13,4.13,0,0,1-1.08,2.19,2.83,2.83,0,0,1-2,.85H327.5a2.83,2.83,0,0,1-2-.85,4.13,4.13,0,0,1-1.08-2.19l-2.58-14.28-.11-.61h31.46l-.11.61Zm-3.59,14.1,2.47-13.67h-29l2.47,13.67a3.1,3.1,0,0,0,.8,1.64,1.82,1.82,0,0,0,1.32.55h19.83a1.82,1.82,0,0,0,1.32-.55A3.1,3.1,0,0,0,349.45,124.39Z"/><path class="cls-2" d="M349,110.27l-1.89,14.28a4.75,4.75,0,0,1-.78,2.15,2,2,0,0,1-1.65.92H330.15a2,2,0,0,1-1.65-.92,4.75,4.75,0,0,1-.78-2.15l-1.89-14.28-.08-.58h23.33l-.08.58Zm-2.91,14.14,1.81-13.7h-21l1.81,13.7a3.72,3.72,0,0,0,.59,1.68,1,1,0,0,0,.82.49h14.54a1,1,0,0,0,.82-.49A3.72,3.72,0,0,0,346.09,124.41Z"/><path class="cls-2" d="M344.64,110.24l-1.14,14.28a6.65,6.65,0,0,1-.46,2.08c-.28.62-.68,1-1.22,1H333c-.53,0-.94-.39-1.22-1a6.67,6.67,0,0,1-.46-2.08l-1.14-14.28,0-.56h14.54l0,.56Zm-2.17,14.2,1.1-13.72H331.26l1.1,13.72a5.68,5.68,0,0,0,.37,1.75c.11.24.21.4.28.4h8.81c.07,0,.17-.15.28-.4A5.68,5.68,0,0,0,342.47,124.44Z"/><path class="cls-2" d="M340.27,110.22l-.4,14.28a16.85,16.85,0,0,1-.15,2c-.11.7-.36,1.14-.77,1.14h-3.08c-.41,0-.66-.44-.77-1.14a17.07,17.07,0,0,1-.15-2l-.4-14.28v-.53h5.75v.53Zm-1.43,14.25.39-13.75H335.6l.39,13.75a15.9,15.9,0,0,0,.14,1.85c.06.36,2.48.71,2.59,0A15.92,15.92,0,0,0,338.85,124.47Z"/><rect class="cls-47" x="322.85" y="113.67" width="29.14" height="1.03"/><rect class="cls-47" x="323.55" y="117.05" width="27.72" height="1.03"/><rect class="cls-47" x="323.99" y="120.38" width="26.85" height="1.03"/><rect class="cls-47" x="324.37" y="123.71" width="26.08" height="1.03"/><rect class="cls-47" x="319.74" y="106.44" width="35.36" height="4.8" rx="1.53" ry="1.53"/><path class="cls-2" d="M318.73,99.57l-.19.15a1,1,0,0,0-.15,1.35l6.09,7.61a1,1,0,0,0,1.35.15l.19-.15a1,1,0,0,0,.15-1.35l-6.09-7.61A1,1,0,0,0,318.73,99.57Z"/><path class="cls-2" d="M356.1,99.57l.19.15a1,1,0,0,1,.15,1.35l-6.09,7.61a1,1,0,0,1-1.35.15l-.19-.15a1,1,0,0,1-.15-1.35l6.08-7.61A1,1,0,0,1,356.1,99.57Z"/><path class="cls-2" d="M83.81,107.31l-2.58,14.28a4.13,4.13,0,0,1-1.08,2.19,2.83,2.83,0,0,1-2,.85H58.27a2.83,2.83,0,0,1-2-.85,4.14,4.14,0,0,1-1.08-2.19l-2.58-14.28-.11-.61H83.92l-.11.61Zm-3.59,14.1,2.47-13.67h-29l2.47,13.67A3.1,3.1,0,0,0,57,123a1.82,1.82,0,0,0,1.32.55H78.11a1.82,1.82,0,0,0,1.32-.55A3.1,3.1,0,0,0,80.22,121.4Z"/><path class="cls-2" d="M79.78,107.28l-1.89,14.28a4.77,4.77,0,0,1-.78,2.15,2,2,0,0,1-1.65.91H60.92a2,2,0,0,1-1.65-.91,4.75,4.75,0,0,1-.78-2.15l-1.89-14.28-.08-.58H79.86l-.08.58Zm-2.91,14.14,1.81-13.7h-21l1.81,13.7a3.73,3.73,0,0,0,.59,1.68,1,1,0,0,0,.82.49H75.46a1,1,0,0,0,.82-.49A3.73,3.73,0,0,0,76.87,121.43Z"/><path class="cls-2" d="M75.42,107.26l-1.14,14.28a6.69,6.69,0,0,1-.46,2.08c-.28.62-.68,1-1.22,1H63.79c-.53,0-.94-.39-1.22-1a6.69,6.69,0,0,1-.46-2.08L61,107.26l0-.56H75.46l0,.56Zm-2.17,14.2,1.1-13.72H62l1.1,13.72a5.69,5.69,0,0,0,.37,1.75c.11.24.21.4.28.4H72.6c.07,0,.17-.15.28-.4A5.68,5.68,0,0,0,73.25,121.46Z"/><path class="cls-2" d="M71.05,107.23l-.4,14.28a17,17,0,0,1-.15,2c-.11.7-.36,1.14-.77,1.14H66.65c-.41,0-.66-.44-.77-1.14a16.85,16.85,0,0,1-.15-2l-.4-14.28v-.53h5.75l0,.53Zm-1.43,14.25L70,107.73H66.37l.39,13.75a16.07,16.07,0,0,0,.14,1.85c.06.36,2.48.71,2.59,0A15.86,15.86,0,0,0,69.62,121.48Z"/><rect class="cls-47" x="53.62" y="110.69" width="29.14" height="1.03"/><rect class="cls-47" x="54.33" y="114.07" width="27.72" height="1.03"/><rect class="cls-47" x="54.77" y="117.4" width="26.85" height="1.03"/><rect class="cls-47" x="55.15" y="120.73" width="26.08" height="1.03"/><rect class="cls-47" x="50.51" y="103.45" width="35.36" height="4.8" rx="1.53" ry="1.53"/><rect class="cls-47" x="51.97" y="95.38" width="2.17" height="11.67" rx="0.96" ry="0.96" transform="translate(-51.6 55.32) rotate(-38.66)"/><rect class="cls-47" x="77.49" y="100.14" width="11.67" height="2.17" rx="0.96" ry="0.96" transform="translate(-47.76 103.06) rotate(-51.34)"/><path class="cls-2" d="M72.11,88.05c-.22.25-.34,1.18-.58,1.46a4.12,4.12,0,0,0-1.15,1.73c-.24,1.15.31,2.46.08,4.09a20.1,20.1,0,0,0,.1,8.24c.88,3.42,2.92,5.79,4.19,7.88a11,11,0,0,1,1.14,3.17c.1.39-1.8.93-2.37.74-2.35-.78-3.36-1.11-5-2.94a6.07,6.07,0,0,0,1.23-1c-3.38-3.54-5.69-12.23-3-17.44a4.21,4.21,0,0,1,1.67-2A8.19,8.19,0,0,1,70,89.41a9.94,9.94,0,0,0-2.74,2c-.22.26-.28,1-.56,1.49a11.77,11.77,0,0,0-2,6.43,16.87,16.87,0,0,0,4.13,11.81,4.58,4.58,0,0,1-.88.78c-5.75.64-9.17-5.12-9.35-10.92-.1-3.39,2.13-10.09,5.75-11.11,1-.27,2-.3,3-.63a20.81,20.81,0,0,0,3-1.72A1.7,1.7,0,0,1,72.11,88.05Z"/><path class="cls-2" d="M346.46,30.56a8.14,8.14,0,0,1-5.28-4.06,4.47,4.47,0,0,1,.61-5.43A5,5,0,0,1,344,19.75l-.07-.16a3.1,3.1,0,0,0-1.26-.53c-1.12-.29-1.56.32-3.08,1.66.21-2.31,2-4.06,3.68-2.37a2.68,2.68,0,0,1,.31.37c-.18-.52-.29-.92-.45-1.32.38-.11,1,0,1.09.15a2.7,2.7,0,0,0,.24,2,4.93,4.93,0,0,1,2.33-.7A4.47,4.47,0,0,1,351.26,22a8.14,8.14,0,0,1-.52,6.64c-.48.87-1.17.85-2,1.21S347.44,30.78,346.46,30.56Z"/><path class="cls-2" d="M353.22,29.79c1.58-2,3.66-4.67,4.29-4.52a2.15,2.15,0,0,0,2.59-.16,2,2,0,0,0,2.24,1c1.82-.46,2.5-3.46.78-5a3.25,3.25,0,0,0-2-3.43c-.74-1.57-4-2.95-6.19-1.86-1.09.22-2.66,0-3.79.89-.93.76-1.42,3.07-.57,4s1.89.75,2.55.94a3.35,3.35,0,0,1,3.74-3.26,4,4,0,0,1,2.56,1.23,4.2,4.2,0,0,1,.64,5.29,4.18,4.18,0,0,0-3.34-5.41,3,3,0,0,0-3.14,2.43,1.79,1.79,0,0,1,.3,1.18c0,1.61-1.56,3.44-2.53,4.64A2.06,2.06,0,0,0,353.22,29.79Z"/><path class="cls-2" d="M91.32,19.88a7,7,0,0,1,14,0h3.52l2.09,23.24H85.71L87.8,19.88Zm13.23,0a6.25,6.25,0,0,0-12.44,0Z"/></g></g></svg>